<svg width="20" height="20" viewBox="0 0 26 25" fill="none" xmlns="http://www.w3.org/2000/svg">
<g clip-path="url(#clip0)">
<path d="M16.0991 21.7823C15.3574 21.6054 14.3796 21.0886 13.0274 19.8448C11.384 18.3283 10.1509 16.9961 8.71295 14.664C7.3274 12.4119 6.7229 11.0235 6.0217 8.47325C5.22922 5.59358 5.78617 4.31607 6.18895 3.80937C6.66921 3.2035 7.23535 2.90765 7.93792 2.64756C8.33595 2.50414 8.74635 2.39771 9.16391 2.32961C9.2058 2.32234 9.24486 2.31519 9.27975 2.30865C9.48804 2.26879 9.80356 2.20872 10.1319 2.43162C10.3512 2.57952 10.5221 2.81586 10.7795 3.22864C11.3074 4.07423 11.8891 5.81572 12.0595 6.64348C12.1735 7.20115 12.2491 7.56937 12.1608 7.94107C12.057 8.37613 11.7581 8.65942 11.4061 8.95817C11.3401 9.01431 11.2753 9.0675 11.2123 9.11915C10.8325 9.43014 10.7429 9.52481 10.7379 9.73084C10.7286 10.1451 11.0807 11.4688 11.872 12.7526C12.6632 14.0365 13.6611 14.9002 14.0366 15.079C14.2306 15.1714 14.3584 15.132 14.822 14.9262C14.8884 14.8967 14.9568 14.866 15.0278 14.8359C15.5047 14.6312 15.8755 14.4944 16.3003 14.5957L16.3026 14.5963C16.6723 14.6845 16.9506 14.9203 17.4118 15.3099C18.0135 15.818 19.3533 17.1219 19.8735 17.9765C20.1266 18.3919 20.2613 18.6505 20.2947 18.9127C20.3451 19.3074 20.1486 19.5606 20.0193 19.7305C19.9978 19.7587 19.9739 19.7895 19.9484 19.824C19.6981 20.1649 19.4169 20.482 19.1084 20.7714C18.5604 21.2792 18.0396 21.6493 17.2806 21.8043C16.8902 21.8866 16.4862 21.879 16.0991 21.7823Z" fill="white"/>
</g>
<defs>
<clipPath id="clip0">
<rect width="20" height="20" fill="white" transform="translate(5.59335) rotate(13.4173)"/>
</clipPath>
</defs>
</svg>
